<svg version="1.1" id="Layer_1" xmlns="http://www.w3.org/2000/svg" x="0" y="0" viewBox="0 0 132 22" xml:space="preserve">
  <style>
    .st0{fill:#0075dd}
  </style>
  <path class="st0" d="M0 15.9h6.1V22H0zM15.6 15.9h6.1V22h-6.1zM0 0h6.1v6.1H0zM15.6 0h6.1v6.1h-6.1zM15.6 8h6.1v6.1h-6.1zM7.8 15.9h6.1V22H7.8zM7.8 8h6.1v6.1H7.8zM0 8h6.1v6.1H0zM7.8 0h6.1v6.1H7.8zM101.8 7.6c-3.7 0-6.7 2.9-6.7 7.1 0 4 2.7 7.2 6.7 7.2 3.6 0 6.7-2.6 6.7-7.2 0-4.4-3.1-7.1-6.7-7.1zm0 12.9c-3.3 0-5.1-2.7-5.1-5.7 0-3.1 1.8-5.7 5.1-5.7 3.2 0 5.1 2.6 5.1 5.7 0 3-1.9 5.7-5.1 5.7zM88.3 7.6c-2.1 0-3.9 1.2-5.1 2.9V.1h-1.5v21.7h1.5v-9.5c.9-1.6 2.7-3.1 4.7-3.1 1.7 0 3.2 1.1 3.2 4.1v8.6h1.5V13c.1-3.3-1.6-5.4-4.3-5.4zM116.4 14.3c-2.1-.9-3.8-1.4-3.8-2.9 0-1.2 1-2.3 3.3-2.3 1.2 0 2.3.4 3.2.8l.6-1.2c-1.1-.6-2.4-1-3.8-1-2.7 0-4.8 1.5-4.8 3.7s2.1 3.1 4.4 4c2.1.8 3.4 1.8 3.4 3 0 1.5-1.8 2.1-3.2 2.1-1.2 0-2.5-.4-3.7-1.2l-.7 1.3c1.4.8 2.9 1.3 4.4 1.3 2.7 0 4.7-1.4 4.7-3.6 0-1.2-.7-2.7-4-4zM131.5 20c-.8.4-1.7.6-2.6.5-2-.1-3-1.5-3-3.8V9.2h4.6V7.9h-4.6V3.2h-1.5v4.7h-2.5v1.3h2.5v7.7c0 3.6 2 5.1 4.5 5.1 1.1 0 2.1-.3 3.1-.6l-.5-1.4zM72.4 7.7c-3.4-.1-6.7 2.2-6.8 6.6-.2 3.9 2.2 7.6 6.9 7.7 2 .1 3.7-.5 4.9-1.2l-.5-1.3c-1.2.6-2.7 1.1-4.3 1.1-3.6-.1-5.4-2.9-5.4-5.4h11.1c.4-4.5-2.2-7.4-5.9-7.5zm-5.2 6.2c.2-2.8 2.4-4.9 5.1-4.8 2.8.1 4.5 2.4 4.5 4.8h-9.6zM37.9 7.6c-1.8 0-3.4.7-4.6 1.8V.1h-1.5v20.5c1.4.7 3.2 1.4 5.2 1.4 3.6 0 6.9-2 6.9-7.2 0-5.1-2.9-7.2-6-7.2zm-1 13c-1.1 0-2.3-.3-3.6-.9v-8.5C34.4 10 36 9 37.7 9c2.6 0 4.6 2.1 4.6 5.8.1 4.1-2.6 5.8-5.4 5.8zM46.6 0h1.5v21.7h-1.5zM61.2 17.5c-1.3 1.9-2.9 3-4.8 3-1.6 0-3.2-.9-3.2-4.2V7.8h-1.5v8.6c0 4.2 2.1 5.5 4.3 5.5 2.1 0 4-1.2 5.2-2.9v2.7h1.5V7.8h-1.5v9.7z"/>
</svg>
